<svg xmlns="http://www.w3.org/2000/svg" viewBox="0 0 64 64" role="img" aria-labelledby="title desc">
  <title id="title">Wood-burning stove</title>
  <desc id="desc">A freestanding stove with a flue, glazed door and visible flame.</desc>
  <g fill="none" stroke="#2f241d" stroke-linecap="round" stroke-linejoin="round">
    <path d="M25.6 7.2h12.8M27.5 7.5v9.3h9V7.5" stroke-width="3.6"/>
    <path d="M14.4 16.8h35.2" stroke-width="4.5"/>
    <rect x="16.8" y="16.8" width="30.4" height="32" rx="4.8" stroke-width="4.1"/>
    <rect x="21.9" y="22.7" width="19.5" height="18.1" rx="3.1" stroke-width="3.6"/>
    <path d="M42.7 27h3.1M24.5 45.3h14.9M22.4 49.1v5.3M41.6 49.1v5.3" stroke-width="3.6"/>
  </g>
  <path d="M31.7 25.9c1.9 2.9-.5 4.8-1.3 6.7a3.6 3.6 0 0 0 6.9 1.3c.6-2.1-.5-4-1.5-5.5 2.5 1.1 3.9 3.1 3.9 5.5a7.6 7.6 0 1 1-12.1-6.1c1.7-1.1 3-2 4.1-3.3z" fill="#d66a24"/>
</svg>
